<svg id="Layer_1" data-name="Layer 1" xmlns="http://www.w3.org/2000/svg" viewBox="0 0 483.88 392.4"><g id="_1nhtdh.tif" data-name="1nhtdh.tif"><path d="M102,13.79c10.17,4.74,20.66,8.9,30.4,14.4,8,4.5,11.35,12.33,5.81,20.54-5.67,8.41-13.35,6.92-21.16,1.79-20-13.12-31.35-9.38-39.8,12.7C66.28,92,81.16,147,105.34,165.73c2.32,1.79,6.49,2,9.69,1.72,14.38-1.37,28.89-5.47,43-4.43,50.73,3.73,101.92,5.92,151.77,15,34.47,6.29,59.84-2,83.29-24.85,1.71-1.67,3.68-3.74,5.83-4.19,13.79-2.88,22.09-12.77,30.05-23,4.9-6.32,9-4.2,9,2-.1,13.35,7,19.93,17.11,27.31,9.78,7.15,16.88,18.27,24.1,28.39,1.85,2.59,1.19,9-.85,11.9-4.7,6.68-7.05,15.85-19.48,14.68-22.22-2.1-32.83,5.11-39.76,23.44-13.8,36.49-.7,94.62,27.38,121.42a23.13,23.13,0,0,1,1.74,1.69c13.34,15.86,29.23,27.89,49.7,33V402c-3.21-.25-6.44-.36-9.64-.75-10.58-1.28-23.28.6-31.33-4.62-23.32-15.14-45.21-32.62-66.72-50.32-6.7-5.52-11-14.36-15.32-22.26-6.95-12.69-18.22-18.52-31.55-19.19-11.79-.58-23.4,1.89-29.6,14.51-8.72,17.75-17.77,35.34-26.8,52.94-2.93,5.7-6.29,10.88,3.62,13.46,2.15.56,4.67,4.73,4.65,7.23a9.83,9.83,0,0,1-4.71,7.36c-17,8-28.9-.23-27.29-18.49.18-2,.66-4,.92-6,2.76-21.61,5.8-43.2,8-64.87.36-3.6-2.9-10.73-4.88-10.87A237.13,237.13,0,0,0,229,300c-16.38,1.47-32.68,4.15-48.89,7-3.52.63-7.4,3.65-9.59,6.66-9,12.34-17.33,25.1-25.89,37.72-1.31,1.93-3.47,3.92-3.54,5.93-.24,7.61,22.11,31.35,29.52,33.39,3.4.93,6,4.93,8.9,7.54-2.92,2.48-5.55,6.57-8.82,7.15-12.63,2.26-23.72-.39-32-11.67-6.69-9.07-14.63-17.23-22-25.81-7.05-8.23-9.29-17.11-6.25-28,2-7.22,1.37-15.19,1.83-22.82.48-7.83-3.09-8.77-9.73-6.22-15.08,5.8-30.39,11-45.45,16.82-3.14,1.22-7,3.57-8.17,6.37C43.23,348.24,38.46,362.73,33.2,377c-1.46,4-3.54,7.74-5.33,11.6-3.9-2.52-9.25-4.21-11.33-7.78a21.86,21.86,0,0,1-2-14.59c3.35-14.53,8.8-28.6,11.68-43.2,3.41-17.29,10.79-30.18,27.61-37.89,12.16-5.57,19.88-16.47,17.91-30.35-3.06-21.53,2.33-40.89,12.06-59.45,3.17-6,2.41-9.87-2.12-14.85-16.12-17.71-25.95-38.94-31.74-61.93C37,67.42,52.78,31,94.74,13.79Z" transform="translate(-14.06 -13.79)" style="fill:#afafaf"/></g></svg>